<svg xmlns="http://www.w3.org/2000/svg" xmlns:xlink="http://www.w3.org/1999/xlink" width="500" zoomAndPan="magnify" viewBox="0 0 375 374.999991" height="500" preserveAspectRatio="xMidYMid meet" version="1.0"><defs><g/><clipPath id="008b91739e"><path d="M 318 298 L 354 298 L 354 334 L 318 334 Z M 318 298 " clip-rule="nonzero"/></clipPath><clipPath id="257b0e3f53"><path d="M 311.136719 304.027344 L 335.785156 281.242188 L 369.960938 318.21875 L 345.308594 341 Z M 311.136719 304.027344 " clip-rule="nonzero"/></clipPath><clipPath id="415d80e93d"><path d="M 311.136719 304.027344 L 335.785156 281.242188 L 369.960938 318.21875 L 345.308594 341 Z M 311.136719 304.027344 " clip-rule="nonzero"/></clipPath><clipPath id="ba3efdc0c1"><path d="M 336 282 L 372 282 L 372 318 L 336 318 Z M 336 282 " clip-rule="nonzero"/></clipPath><clipPath id="60885e5cc1"><path d="M 328.980469 287.53125 L 353.632812 264.75 L 387.804688 301.722656 L 363.15625 324.507812 Z M 328.980469 287.53125 " clip-rule="nonzero"/></clipPath><clipPath id="82d8d42bae"><path d="M 328.980469 287.53125 L 353.632812 264.75 L 387.804688 301.722656 L 363.15625 324.507812 Z M 328.980469 287.53125 " clip-rule="nonzero"/></clipPath></defs><g clip-path="url(#008b91739e)"><g clip-path="url(#257b0e3f53)"><g clip-path="url(#415d80e93d)"><path fill="#23c45d" d="M 353.300781 299.910156 L 323.148438 298.570312 C 317.324219 298.3125 316.339844 309.65625 323.242188 309.84375 L 342.003906 310.351562 L 340.570312 329.230469 C 340.132812 334.980469 351.347656 335.585938 351.667969 329.742188 Z M 353.300781 299.910156 " fill-opacity="1" fill-rule="nonzero"/></g></g></g><g clip-path="url(#ba3efdc0c1)"><g clip-path="url(#60885e5cc1)"><g clip-path="url(#82d8d42bae)"><path fill="#23c45d" d="M 371.144531 283.417969 L 340.996094 282.074219 C 335.171875 281.816406 334.1875 293.160156 341.085938 293.347656 L 359.847656 293.855469 L 358.417969 312.734375 C 357.980469 318.484375 369.191406 319.09375 369.511719 313.25 Z M 371.144531 283.417969 " fill-opacity="1" fill-rule="nonzero"/></g></g></g><g fill="#373643" fill-opacity="1"><g transform="translate(9.011396, 364.888471)"><g><path d="M 15.53125 -48.453125 L 15.53125 -30.59375 L 44.234375 -30.59375 C 45.796875 -30.59375 46.960938 -30.128906 47.734375 -29.203125 C 48.515625 -28.273438 48.90625 -27.273438 48.90625 -26.203125 C 48.90625 -25.128906 48.515625 -24.15625 47.734375 -23.28125 C 46.960938 -22.414062 45.796875 -21.984375 44.234375 -21.984375 L 15.53125 -21.984375 L 15.53125 -4.84375 C 15.53125 -3.289062 14.988281 -2.09375 13.90625 -1.25 C 12.832031 -0.414062 11.664062 0 10.40625 0 C 9.09375 0 7.894531 -0.414062 6.8125 -1.25 C 5.738281 -2.09375 5.203125 -3.257812 5.203125 -4.75 L 5.203125 -51.859375 C 5.203125 -53.296875 5.785156 -54.535156 6.953125 -55.578125 C 8.117188 -56.628906 9.476562 -57.15625 11.03125 -57.15625 L 45.859375 -57.15625 C 47.472656 -57.15625 48.664062 -56.707031 49.4375 -55.8125 C 50.21875 -54.914062 50.609375 -53.898438 50.609375 -52.765625 C 50.609375 -51.691406 50.21875 -50.703125 49.4375 -49.796875 C 48.664062 -48.898438 47.472656 -48.453125 45.859375 -48.453125 Z M 15.53125 -48.453125 "/></g></g></g><g fill="#373643" fill-opacity="1"><g transform="translate(60.963122, 364.888471)"><g><path d="M 13.453125 -52.40625 C 13.453125 -50.90625 12.898438 -49.78125 11.796875 -49.03125 C 10.691406 -48.289062 9.507812 -47.921875 8.25 -47.921875 C 6.9375 -47.921875 5.738281 -48.289062 4.65625 -49.03125 C 3.582031 -49.78125 3.046875 -50.90625 3.046875 -52.40625 L 3.046875 -53.578125 C 3.046875 -55.128906 3.582031 -56.265625 4.65625 -56.984375 C 5.738281 -57.703125 6.9375 -58.0625 8.25 -58.0625 C 9.507812 -58.0625 10.691406 -57.703125 11.796875 -56.984375 C 12.898438 -56.265625 13.453125 -55.128906 13.453125 -53.578125 Z M 3.140625 -41.28125 C 3.140625 -42.71875 3.691406 -43.804688 4.796875 -44.546875 C 5.898438 -45.296875 7.050781 -45.671875 8.25 -45.671875 C 9.507812 -45.671875 10.675781 -45.296875 11.75 -44.546875 C 12.832031 -43.804688 13.375 -42.75 13.375 -41.375 L 13.375 -4.390625 C 13.375 -2.898438 12.832031 -1.796875 11.75 -1.078125 C 10.675781 -0.359375 9.507812 0 8.25 0 C 7.050781 0 5.898438 -0.359375 4.796875 -1.078125 C 3.691406 -1.796875 3.140625 -2.898438 3.140625 -4.390625 Z M 3.140625 -41.28125 "/></g></g></g><g fill="#373643" fill-opacity="1"><g transform="translate(75.67772, 364.888471)"><g><path d="M 24.671875 -8.53125 C 26.046875 -9.300781 27.285156 -9.566406 28.390625 -9.328125 C 29.503906 -9.085938 30.40625 -8.5625 31.09375 -7.75 C 31.78125 -6.945312 32.125 -6.007812 32.125 -4.9375 C 32.125 -4.15625 31.882812 -3.375 31.40625 -2.59375 C 30.925781 -1.820312 30.175781 -1.164062 29.15625 -0.625 C 27.84375 0.09375 26.644531 0.523438 25.5625 0.671875 C 24.488281 0.816406 23.238281 0.890625 21.8125 0.890625 C 17.914062 0.890625 14.921875 0.0820312 12.828125 -1.53125 C 10.734375 -3.144531 9.296875 -5.238281 8.515625 -7.8125 C 7.742188 -10.382812 7.359375 -13.101562 7.359375 -15.96875 L 7.359375 -37.15625 L 3.953125 -37.15625 C 2.273438 -37.15625 1.03125 -37.601562 0.21875 -38.5 C -0.582031 -39.394531 -0.984375 -40.351562 -0.984375 -41.375 C -0.984375 -42.445312 -0.566406 -43.429688 0.265625 -44.328125 C 1.109375 -45.222656 2.335938 -45.671875 3.953125 -45.671875 L 7.359375 -45.671875 L 7.359375 -53.390625 C 7.359375 -54.941406 7.863281 -56.109375 8.875 -56.890625 C 9.894531 -57.671875 11.066406 -58.0625 12.390625 -58.0625 C 13.640625 -58.0625 14.800781 -57.671875 15.875 -56.890625 C 16.957031 -56.109375 17.5 -54.941406 17.5 -53.390625 L 17.5 -45.671875 L 24.5 -45.671875 C 26.050781 -45.671875 27.242188 -45.222656 28.078125 -44.328125 C 28.921875 -43.429688 29.34375 -42.445312 29.34375 -41.375 C 29.34375 -40.289062 28.921875 -39.316406 28.078125 -38.453125 C 27.242188 -37.585938 26.050781 -37.15625 24.5 -37.15625 L 17.5 -37.15625 L 17.5 -15.96875 C 17.5 -14.65625 17.585938 -13.382812 17.765625 -12.15625 C 17.941406 -10.925781 18.34375 -9.90625 18.96875 -9.09375 C 19.601562 -8.289062 20.550781 -7.890625 21.8125 -7.890625 C 22.28125 -7.890625 22.800781 -7.960938 23.375 -8.109375 C 23.945312 -8.265625 24.378906 -8.40625 24.671875 -8.53125 Z M 24.671875 -8.53125 "/></g></g></g><g fill="#373643" fill-opacity="1"><g transform="translate(106.812558, 364.888471)"><g><path d="M 46.484375 -57.15625 C 48.210938 -57.15625 49.523438 -56.675781 50.421875 -55.71875 C 51.328125 -54.769531 51.78125 -53.695312 51.78125 -52.5 C 51.78125 -51.363281 51.328125 -50.316406 50.421875 -49.359375 C 49.523438 -48.398438 48.210938 -47.921875 46.484375 -47.921875 L 29.796875 -47.921875 L 29.875 -4.75 C 29.875 -3.132812 29.289062 -1.9375 28.125 -1.15625 C 26.957031 -0.382812 25.78125 0 24.59375 0 C 23.332031 0 22.144531 -0.382812 21.03125 -1.15625 C 19.925781 -1.9375 19.375 -3.132812 19.375 -4.75 L 19.375 -47.921875 L 2.78125 -47.921875 C 1.039062 -47.921875 -0.226562 -48.398438 -1.03125 -49.359375 C -1.84375 -50.316406 -2.25 -51.363281 -2.25 -52.5 C -2.25 -53.695312 -1.84375 -54.769531 -1.03125 -55.71875 C -0.226562 -56.675781 1.039062 -57.15625 2.78125 -57.15625 Z M 46.484375 -57.15625 "/></g></g></g><g fill="#373643" fill-opacity="1"><g transform="translate(156.251913, 364.888471)"><g><path d="M 24.234375 -45.671875 C 25.847656 -45.671875 27.128906 -45.328125 28.078125 -44.640625 C 29.035156 -43.953125 29.515625 -42.832031 29.515625 -41.28125 C 29.515625 -39.84375 29.035156 -38.703125 28.078125 -37.859375 C 27.128906 -37.023438 25.847656 -36.609375 24.234375 -36.609375 C 20.460938 -36.609375 17.8125 -35.257812 16.28125 -32.5625 C 14.757812 -29.875 14 -26.226562 14 -21.625 L 14 -4.578125 C 14 -3.265625 13.519531 -2.171875 12.5625 -1.296875 C 11.601562 -0.429688 10.4375 0 9.0625 0 C 7.507812 0 6.253906 -0.429688 5.296875 -1.296875 C 4.335938 -2.171875 3.859375 -3.265625 3.859375 -4.578125 L 3.859375 -41.09375 C 3.859375 -42.53125 4.410156 -43.648438 5.515625 -44.453125 C 6.617188 -45.265625 7.800781 -45.671875 9.0625 -45.671875 C 10.320312 -45.671875 11.457031 -45.28125 12.46875 -44.5 C 13.488281 -43.726562 14 -42.59375 14 -41.09375 L 14 -40.5625 C 15.3125 -42.289062 16.832031 -43.570312 18.5625 -44.40625 C 20.300781 -45.25 22.191406 -45.671875 24.234375 -45.671875 Z M 24.234375 -45.671875 "/></g></g></g><g fill="#373643" fill-opacity="1"><g transform="translate(183.079794, 364.888471)"><g><path d="M 41.71875 -45.671875 C 43.28125 -45.671875 44.523438 -45.238281 45.453125 -44.375 C 46.378906 -43.507812 46.84375 -42.390625 46.84375 -41.015625 L 46.84375 -4.671875 C 46.84375 -3.296875 46.378906 -2.171875 45.453125 -1.296875 C 44.523438 -0.429688 43.28125 0 41.71875 0 C 40.226562 0 39.0625 -0.34375 38.21875 -1.03125 C 37.382812 -1.71875 36.878906 -2.628906 36.703125 -3.765625 C 34.671875 -2.148438 32.394531 -0.96875 29.875 -0.21875 C 27.363281 0.519531 24.972656 0.890625 22.703125 0.890625 C 18.390625 0.890625 14.660156 -0.09375 11.515625 -2.0625 C 8.378906 -4.039062 5.972656 -6.820312 4.296875 -10.40625 C 2.628906 -14 1.796875 -18.1875 1.796875 -22.96875 C 1.796875 -27.632812 2.722656 -31.734375 4.578125 -35.265625 C 6.429688 -38.796875 9.015625 -41.5625 12.328125 -43.5625 C 15.648438 -45.570312 19.5 -46.578125 23.875 -46.578125 C 25.78125 -46.578125 27.898438 -46.21875 30.234375 -45.5 C 32.566406 -44.78125 34.722656 -43.640625 36.703125 -42.078125 C 36.941406 -43.160156 37.476562 -44.03125 38.3125 -44.6875 C 39.15625 -45.34375 40.289062 -45.671875 41.71875 -45.671875 Z M 23.78125 -8.171875 C 26.414062 -8.171875 28.957031 -8.753906 31.40625 -9.921875 C 33.863281 -11.085938 35.597656 -12.804688 36.609375 -15.078125 L 36.609375 -30.59375 C 35.472656 -32.8125 33.769531 -34.519531 31.5 -35.71875 C 29.226562 -36.914062 26.925781 -37.515625 24.59375 -37.515625 C 20.820312 -37.515625 17.785156 -36.132812 15.484375 -33.375 C 13.179688 -30.625 12.03125 -27.125 12.03125 -22.875 C 12.03125 -18.445312 13.101562 -14.890625 15.25 -12.203125 C 17.40625 -9.515625 20.25 -8.171875 23.78125 -8.171875 Z M 23.78125 -8.171875 "/></g></g></g><g fill="#373643" fill-opacity="1"><g transform="translate(234.941805, 364.888471)"><g><path d="M 35.4375 -33.375 C 34.0625 -34.988281 32.445312 -36.125 30.59375 -36.78125 C 28.738281 -37.445312 26.914062 -37.78125 25.125 -37.78125 C 21.175781 -37.78125 18.003906 -36.414062 15.609375 -33.6875 C 13.222656 -30.96875 12.03125 -27.304688 12.03125 -22.703125 C 12.03125 -18.273438 13.269531 -14.710938 15.75 -12.015625 C 18.226562 -9.328125 21.472656 -7.984375 25.484375 -7.984375 C 27.273438 -7.984375 29.097656 -8.296875 30.953125 -8.921875 C 32.804688 -9.554688 34.453125 -10.59375 35.890625 -12.03125 C 37.210938 -13.34375 38.515625 -14.023438 39.796875 -14.078125 C 41.078125 -14.140625 42.132812 -13.78125 42.96875 -13 C 43.8125 -12.226562 44.28125 -11.226562 44.375 -10 C 44.46875 -8.78125 43.941406 -7.539062 42.796875 -6.28125 C 40.460938 -3.707031 37.785156 -1.867188 34.765625 -0.765625 C 31.742188 0.335938 28.617188 0.890625 25.390625 0.890625 C 20.671875 0.890625 16.53125 -0.09375 12.96875 -2.0625 C 9.40625 -4.039062 6.632812 -6.789062 4.65625 -10.3125 C 2.6875 -13.84375 1.703125 -17.941406 1.703125 -22.609375 C 1.703125 -27.453125 2.671875 -31.671875 4.609375 -35.265625 C 6.554688 -38.859375 9.296875 -41.640625 12.828125 -43.609375 C 16.359375 -45.585938 20.457031 -46.578125 25.125 -46.578125 C 28.414062 -46.578125 31.476562 -46.066406 34.3125 -45.046875 C 37.15625 -44.023438 39.773438 -42.109375 42.171875 -39.296875 C 43.253906 -38.046875 43.71875 -36.820312 43.5625 -35.625 C 43.414062 -34.425781 42.894531 -33.4375 42 -32.65625 C 41.101562 -31.882812 40.039062 -31.515625 38.8125 -31.546875 C 37.582031 -31.578125 36.457031 -32.1875 35.4375 -33.375 Z M 35.4375 -33.375 "/></g></g></g><g fill="#373643" fill-opacity="1"><g transform="translate(279.805013, 364.888471)"><g><path d="M 40.203125 -7.71875 C 41.210938 -6.457031 41.613281 -5.242188 41.40625 -4.078125 C 41.195312 -2.910156 40.628906 -1.9375 39.703125 -1.15625 C 38.773438 -0.382812 37.710938 0 36.515625 0 C 34.898438 0 33.523438 -0.65625 32.390625 -1.96875 L 17.234375 -18.84375 L 14.625 -16.515625 L 14.625 -4.578125 C 14.625 -3.078125 14.070312 -1.9375 12.96875 -1.15625 C 11.863281 -0.382812 10.679688 0 9.421875 0 C 8.109375 0 6.941406 -0.382812 5.921875 -1.15625 C 4.898438 -1.9375 4.390625 -3.078125 4.390625 -4.578125 L 4.390625 -53.484375 C 4.390625 -55.035156 4.898438 -56.1875 5.921875 -56.9375 C 6.941406 -57.6875 8.140625 -58.0625 9.515625 -58.0625 C 10.890625 -58.0625 12.082031 -57.6875 13.09375 -56.9375 C 14.113281 -56.1875 14.625 -55.035156 14.625 -53.484375 L 14.625 -28.71875 L 31.234375 -44.234375 C 32.367188 -45.191406 33.625 -45.671875 35 -45.671875 C 36.4375 -45.671875 37.660156 -45.207031 38.671875 -44.28125 C 39.691406 -43.351562 40.203125 -42.289062 40.203125 -41.09375 C 40.203125 -39.957031 39.570312 -38.789062 38.3125 -37.59375 L 24.234375 -25.125 Z M 40.203125 -7.71875 "/></g></g></g><path fill="#373643" d="M 118.910156 71.277344 C 120.816406 74.363281 122.671875 77.597656 125.261719 80.175781 C 129.941406 84.832031 135.617188 88.296875 140.96875 92.097656 C 147 96.378906 152.757812 101.015625 157.941406 106.308594 C 160.011719 108.425781 162.417969 110.902344 163.554688 113.675781 C 161.246094 112.746094 159.195312 109.261719 157.527344 107.425781 C 156.441406 106.242188 155.28125 105.144531 154.042969 104.125 C 151.503906 102.011719 148.984375 99.84375 146.34375 97.855469 C 139.214844 92.496094 131.890625 87.652344 125.328125 81.558594 C 122.746094 79.164062 120.816406 76.40625 118.863281 73.507812 C 116.800781 76.558594 114.910156 79.804688 113.148438 83.039062 C 112.152344 84.863281 110.308594 89.222656 109.023438 90.570312 C 111.078125 83.8125 114.667969 76.898438 118.910156 71.277344 Z M 118.910156 71.277344 " fill-opacity="1" fill-rule="nonzero"/><path fill="#373643" d="M 194.042969 133.125 C 193.945312 132.21875 193.933594 131.28125 193.953125 130.371094 C 194.042969 125.488281 195.503906 120.609375 197.699219 116.273438 C 205.613281 100.65625 221.28125 92.886719 234.28125 82.316406 C 236.40625 80.589844 238.414062 78.746094 240.1875 76.652344 C 241.40625 75.207031 242.484375 73.582031 243.84375 72.265625 C 244.332031 72.417969 244.429688 72.613281 244.761719 72.992188 C 240.015625 81.320312 232.550781 85.632812 225.109375 91.214844 C 217.480469 96.933594 209.589844 102.816406 203.617188 110.335938 C 203.128906 110.941406 202.660156 111.558594 202.207031 112.191406 C 201.753906 112.824219 201.320312 113.46875 200.902344 114.125 C 200.484375 114.78125 200.085938 115.449219 199.707031 116.128906 C 199.328125 116.808594 198.96875 117.496094 198.628906 118.195312 C 198.289062 118.894531 197.96875 119.605469 197.667969 120.320312 C 197.367188 121.039062 197.085938 121.765625 196.828125 122.496094 C 196.566406 123.230469 196.328125 123.972656 196.113281 124.71875 C 195.894531 125.464844 195.699219 126.21875 195.523438 126.976562 C 195.054688 128.984375 195.132812 131.332031 194.042969 133.125 Z M 194.042969 133.125 " fill-opacity="1" fill-rule="nonzero"/><path fill="#373643" d="M 240.710938 112.042969 C 241.242188 114.996094 239.664062 118.257812 238.617188 120.957031 C 237.808594 123.097656 236.9375 125.210938 235.996094 127.296875 C 235.054688 129.382812 234.054688 131.441406 232.984375 133.464844 C 231.917969 135.488281 230.789062 137.476562 229.601562 139.433594 C 228.410156 141.386719 227.160156 143.300781 225.851562 145.179688 C 222.101562 150.574219 217.945312 155.628906 213.722656 160.65625 C 210.050781 165.03125 205.976562 169.332031 203.25 174.390625 C 201.230469 178.144531 200.179688 182.199219 199.167969 186.304688 C 198.488281 189.070312 197.996094 192.300781 196.511719 194.75 C 195.867188 190.277344 195.46875 185.667969 197.011719 181.339844 C 200.367188 171.910156 208.128906 164.195312 214.386719 156.636719 C 225.617188 143.082031 235.480469 129.027344 240.710938 112.042969 Z M 240.710938 112.042969 " fill-opacity="1" fill-rule="nonzero"/><path fill="#373643" d="M 212.316406 23.449219 C 215.808594 24.472656 218.339844 25.089844 221.726562 26.65625 C 247.246094 38.449219 265.742188 61.132812 275.316406 87.238281 C 281.613281 104.402344 282.769531 125.542969 278.371094 143.289062 C 276.757812 149.808594 274.285156 156.03125 271.457031 162.109375 C 271.179688 162.71875 270.890625 163.324219 270.597656 163.929688 C 270.308594 164.53125 270.007812 165.132812 269.703125 165.726562 C 269.398438 166.324219 269.085938 166.917969 268.769531 167.507812 C 268.453125 168.101562 268.132812 168.6875 267.800781 169.269531 C 267.472656 169.855469 267.140625 170.433594 266.796875 171.011719 C 266.457031 171.589844 266.109375 172.164062 265.757812 172.730469 C 265.40625 173.300781 265.046875 173.867188 264.683594 174.429688 C 264.320312 174.992188 263.949219 175.550781 263.574219 176.109375 C 263.199219 176.664062 262.816406 177.214844 262.429688 177.761719 C 262.042969 178.308594 261.652344 178.851562 261.253906 179.390625 C 260.855469 179.929688 260.453125 180.464844 260.042969 180.996094 C 259.636719 181.527344 259.222656 182.054688 258.800781 182.574219 C 258.382812 183.097656 257.957031 183.617188 257.527344 184.128906 C 257.097656 184.644531 256.660156 185.152344 256.222656 185.660156 C 255.78125 186.164062 255.335938 186.664062 254.882812 187.160156 C 254.433594 187.65625 253.976562 188.144531 253.515625 188.632812 C 253.054688 189.121094 252.589844 189.601562 252.121094 190.078125 C 251.648438 190.554688 251.171875 191.027344 250.691406 191.496094 C 250.210938 191.960938 249.726562 192.421875 249.238281 192.882812 C 248.746094 193.339844 248.253906 193.789062 247.753906 194.238281 C 247.253906 194.683594 246.75 195.125 246.242188 195.5625 C 245.734375 196 245.222656 196.433594 244.707031 196.859375 C 244.1875 197.285156 243.667969 197.707031 243.140625 198.121094 C 242.617188 198.539062 242.085938 198.949219 241.550781 199.351562 C 241.019531 199.757812 240.480469 200.15625 239.9375 200.550781 C 239.398438 200.945312 238.851562 201.332031 238.300781 201.714844 C 237.75 202.097656 237.195312 202.476562 236.636719 202.847656 C 236.082031 203.21875 235.519531 203.582031 234.953125 203.945312 C 234.390625 204.304688 233.820312 204.65625 233.246094 205.007812 C 232.675781 205.355469 232.097656 205.695312 231.519531 206.035156 C 230.941406 206.371094 230.359375 206.699219 229.769531 207.023438 C 229.183594 207.347656 228.59375 207.667969 228.003906 207.980469 C 221.675781 211.296875 215.136719 213.773438 208.441406 216.214844 C 205.328125 217.074219 202.226562 217.71875 199.035156 218.207031 C 198.960938 214.84375 198.289062 211.785156 197.839844 208.496094 C 197.761719 207.933594 197.597656 206.84375 197.820312 206.328125 C 197.863281 206.226562 198.589844 205.875 198.695312 205.828125 C 200.871094 204.804688 203.511719 204.480469 205.8125 203.753906 C 209.042969 202.734375 212.195312 201.382812 215.292969 200.015625 C 216.175781 199.628906 217.054688 199.226562 217.929688 198.8125 C 218.800781 198.394531 219.664062 197.964844 220.523438 197.519531 C 221.382812 197.078125 222.234375 196.621094 223.078125 196.148438 C 223.917969 195.675781 224.753906 195.191406 225.582031 194.691406 C 226.410156 194.195312 227.230469 193.683594 228.042969 193.15625 C 228.851562 192.632812 229.652344 192.09375 230.449219 191.542969 C 231.242188 190.992188 232.027344 190.425781 232.800781 189.847656 C 233.574219 189.273438 234.339844 188.683594 235.097656 188.082031 C 235.855469 187.480469 236.601562 186.867188 237.335938 186.238281 C 238.070312 185.613281 238.796875 184.976562 239.511719 184.328125 C 240.226562 183.675781 240.933594 183.015625 241.625 182.34375 C 242.320312 181.671875 243.003906 180.988281 243.675781 180.292969 C 244.347656 179.597656 245.007812 178.894531 245.65625 178.175781 C 246.304688 177.460938 246.941406 176.734375 247.566406 175.996094 C 248.191406 175.261719 248.804688 174.511719 249.40625 173.757812 C 250.003906 173 250.59375 172.234375 251.171875 171.457031 C 251.59375 170.886719 252.011719 170.308594 252.421875 169.726562 C 252.828125 169.140625 253.230469 168.554688 253.625 167.960938 C 254.023438 167.371094 254.410156 166.773438 254.789062 166.171875 C 255.171875 165.570312 255.542969 164.960938 255.90625 164.351562 C 256.273438 163.738281 256.632812 163.125 256.980469 162.503906 C 257.332031 161.882812 257.671875 161.257812 258.007812 160.628906 C 258.34375 160 258.667969 159.367188 258.988281 158.734375 C 259.308594 158.097656 259.617188 157.457031 259.921875 156.8125 C 260.226562 156.167969 260.519531 155.519531 260.808594 154.867188 C 261.09375 154.214844 261.375 153.558594 261.644531 152.902344 C 261.914062 152.242188 262.179688 151.582031 262.433594 150.917969 C 262.6875 150.25 262.933594 149.582031 263.171875 148.910156 C 263.410156 148.242188 263.640625 147.566406 263.863281 146.890625 C 264.082031 146.214844 264.296875 145.535156 264.5 144.851562 C 264.707031 144.171875 264.902344 143.484375 265.089844 142.796875 C 265.277344 142.113281 265.457031 141.421875 265.628906 140.730469 C 265.796875 140.039062 265.960938 139.347656 266.113281 138.652344 C 266.265625 137.957031 266.414062 137.257812 266.546875 136.558594 C 266.683594 135.859375 266.8125 135.160156 266.933594 134.457031 C 267.050781 133.757812 267.160156 133.054688 267.261719 132.347656 C 267.363281 131.644531 267.457031 130.9375 267.542969 130.230469 C 267.625 129.523438 267.703125 128.816406 267.769531 128.105469 C 267.835938 127.398438 267.894531 126.6875 267.941406 125.976562 C 267.992188 125.265625 268.03125 124.554688 268.0625 123.84375 C 268.097656 123.132812 268.117188 122.421875 268.132812 121.710938 C 268.148438 120.996094 268.152344 120.285156 268.148438 119.574219 C 268.144531 118.859375 268.132812 118.148438 268.113281 117.4375 C 268.089844 116.726562 268.0625 116.015625 268.023438 115.304688 C 267.984375 114.59375 267.9375 113.882812 267.878906 113.171875 C 267.824219 112.460938 267.757812 111.753906 267.683594 111.042969 C 267.613281 110.335938 267.527344 109.628906 267.4375 108.921875 C 267.347656 108.214844 267.246094 107.511719 267.136719 106.808594 C 263.589844 83.292969 250.644531 60.976562 231.472656 46.792969 C 229.144531 45.070312 226.726562 43.363281 224.171875 42 C 221.273438 40.449219 218.28125 39.285156 215.613281 37.320312 C 214.59375 32.695312 213.160156 28.097656 212.316406 23.449219 Z M 212.316406 23.449219 " fill-opacity="1" fill-rule="nonzero"/><path fill="#373643" d="M 150.171875 23.953125 L 150.273438 24.03125 C 150.429688 24.558594 150.316406 25.070312 150.226562 25.601562 C 149.953125 27.171875 149.382812 28.71875 149.019531 30.277344 C 148.546875 32.304688 148.34375 34.523438 147.644531 36.472656 C 147.421875 37.09375 147.113281 37.636719 146.679688 38.128906 C 144.308594 40.8125 137.492188 43.472656 134.128906 45.765625 C 129.902344 48.648438 125.753906 51.75 122.042969 55.28125 C 111.425781 65.394531 103.5625 79.011719 99.058594 92.894531 C 91.789062 115.292969 92.875 137.683594 103.65625 158.714844 C 103.945312 159.277344 104.238281 159.839844 104.535156 160.394531 C 104.835938 160.949219 105.140625 161.503906 105.449219 162.054688 C 105.761719 162.601562 106.078125 163.148438 106.402344 163.691406 C 106.726562 164.234375 107.054688 164.773438 107.386719 165.308594 C 107.722656 165.84375 108.0625 166.375 108.410156 166.90625 C 108.753906 167.433594 109.105469 167.957031 109.464844 168.476562 C 109.820312 169 110.183594 169.515625 110.550781 170.027344 C 110.921875 170.542969 111.292969 171.050781 111.675781 171.554688 C 112.054688 172.058594 112.4375 172.558594 112.828125 173.054688 C 113.21875 173.550781 113.613281 174.042969 114.015625 174.53125 C 114.417969 175.019531 114.824219 175.503906 115.234375 175.984375 C 115.644531 176.460938 116.0625 176.9375 116.484375 177.40625 C 116.90625 177.875 117.332031 178.339844 117.765625 178.804688 C 118.195312 179.261719 118.632812 179.71875 119.074219 180.171875 C 119.515625 180.621094 119.960938 181.070312 120.414062 181.511719 C 120.863281 181.953125 121.320312 182.390625 121.78125 182.820312 C 122.242188 183.253906 122.707031 183.679688 123.175781 184.101562 C 123.648438 184.523438 124.121094 184.941406 124.601562 185.351562 C 125.078125 185.761719 125.5625 186.167969 126.050781 186.570312 C 126.539062 186.972656 127.03125 187.367188 127.527344 187.757812 C 128.023438 188.148438 128.523438 188.53125 129.027344 188.914062 C 129.53125 189.292969 130.039062 189.667969 130.554688 190.035156 C 131.066406 190.402344 131.582031 190.765625 132.101562 191.125 C 132.625 191.480469 133.148438 191.832031 133.675781 192.179688 C 134.203125 192.527344 134.734375 192.867188 135.269531 193.199219 C 135.808594 193.535156 136.347656 193.863281 136.886719 194.1875 C 137.429688 194.511719 137.976562 194.828125 138.527344 195.140625 C 139.074219 195.449219 139.628906 195.753906 140.183594 196.054688 C 140.742188 196.355469 141.300781 196.648438 141.863281 196.933594 C 142.425781 197.222656 142.992188 197.503906 143.558594 197.777344 C 144.128906 198.050781 144.699219 198.320312 145.273438 198.582031 C 145.847656 198.847656 146.425781 199.101562 147.003906 199.351562 C 152.578125 201.777344 158.492188 203.511719 164.277344 205.375 C 163.226562 209.371094 163.109375 213.640625 163.019531 217.753906 C 160.003906 217.265625 157.117188 216.429688 154.1875 215.582031 C 142.195312 212.085938 131.136719 206.703125 121.199219 199.097656 C 100.496094 183.25 85.828125 159.652344 82.378906 133.671875 C 78.738281 106.265625 87.527344 77.449219 104.257812 55.648438 C 104.839844 54.890625 105.433594 54.140625 106.039062 53.402344 C 106.644531 52.660156 107.261719 51.929688 107.890625 51.210938 C 108.515625 50.488281 109.15625 49.777344 109.804688 49.074219 C 110.453125 48.375 111.113281 47.683594 111.785156 47.003906 C 112.457031 46.324219 113.140625 45.652344 113.832031 44.992188 C 114.523438 44.332031 115.226562 43.683594 115.9375 43.046875 C 116.648438 42.40625 117.371094 41.78125 118.101562 41.164062 C 118.832031 40.550781 119.574219 39.945312 120.324219 39.351562 C 121.074219 38.761719 121.832031 38.179688 122.601562 37.609375 C 123.367188 37.039062 124.144531 36.484375 124.929688 35.9375 C 125.714844 35.390625 126.507812 34.859375 127.308594 34.339844 C 128.113281 33.816406 128.921875 33.308594 129.738281 32.8125 C 130.554688 32.316406 131.382812 31.835938 132.214844 31.363281 C 133.046875 30.894531 133.886719 30.4375 134.730469 29.992188 C 135.578125 29.550781 136.429688 29.117188 137.292969 28.699219 C 138.152344 28.28125 139.015625 27.878906 139.890625 27.488281 C 143.109375 26.03125 146.652344 24.414062 150.171875 23.953125 Z M 150.171875 23.953125 " fill-opacity="1" fill-rule="nonzero"/><path fill="#23c45d" d="M 244.761719 72.992188 C 247.398438 76.386719 249.472656 80.429688 251.253906 84.335938 C 251.675781 85.246094 252.082031 86.164062 252.472656 87.089844 C 252.863281 88.015625 253.238281 88.945312 253.597656 89.882812 C 253.957031 90.820312 254.300781 91.765625 254.625 92.714844 C 254.953125 93.664062 255.261719 94.621094 255.554688 95.578125 C 255.847656 96.539062 256.125 97.503906 256.382812 98.476562 C 256.644531 99.445312 256.886719 100.421875 257.113281 101.398438 C 257.339844 102.378906 257.546875 103.359375 257.738281 104.34375 C 257.933594 105.332031 258.105469 106.320312 258.265625 107.3125 C 258.421875 108.300781 258.5625 109.296875 258.6875 110.292969 C 258.808594 111.289062 258.917969 112.289062 259.003906 113.289062 C 259.09375 114.289062 259.164062 115.289062 259.21875 116.292969 C 259.273438 117.296875 259.3125 118.300781 259.332031 119.304688 C 259.351562 120.308594 259.351562 121.3125 259.335938 122.316406 C 259.320312 123.320312 259.289062 124.324219 259.238281 125.328125 C 259.191406 126.328125 259.121094 127.332031 259.039062 128.332031 C 258.953125 129.332031 258.851562 130.332031 258.730469 131.328125 C 258.292969 134.847656 257.6875 138.363281 256.71875 141.773438 C 252.871094 155.316406 243.902344 170.902344 232.757812 179.550781 C 225.597656 185.109375 205.382812 196.355469 196.640625 197.246094 C 196.578125 196.421875 196.476562 195.578125 196.511719 194.75 C 197.996094 192.300781 198.488281 189.070312 199.167969 186.304688 C 200.179688 182.199219 201.230469 178.144531 203.25 174.390625 C 205.976562 169.332031 210.050781 165.03125 213.722656 160.65625 C 217.945312 155.628906 222.101562 150.574219 225.851562 145.179688 C 227.160156 143.300781 228.410156 141.386719 229.601562 139.433594 C 230.789062 137.476562 231.917969 135.488281 232.984375 133.464844 C 234.054688 131.441406 235.054688 129.382812 235.996094 127.296875 C 236.9375 125.210938 237.808594 123.097656 238.617188 120.957031 C 239.664062 118.257812 241.242188 114.996094 240.710938 112.042969 C 241.828125 106.019531 242.570312 99.695312 242.441406 93.5625 C 239.722656 99.332031 238.183594 105.585938 235.695312 111.464844 C 233.171875 117.4375 230.414062 123.277344 226.828125 128.695312 C 225.246094 131.078125 223.457031 133.300781 221.792969 135.625 C 216.136719 143.507812 211.570312 149.070312 204.738281 156.054688 C 203.453125 157.363281 202.109375 158.652344 200.910156 160.042969 C 199.003906 162.261719 197.414062 164.714844 195.039062 166.488281 C 194.121094 158.507812 194.035156 150.355469 193.992188 142.328125 C 193.976562 139.308594 194.277344 136.117188 194.042969 133.125 C 195.132812 131.332031 195.054688 128.984375 195.523438 126.976562 C 195.699219 126.21875 195.894531 125.464844 196.113281 124.71875 C 196.328125 123.972656 196.566406 123.230469 196.828125 122.496094 C 197.085938 121.765625 197.367188 121.039062 197.667969 120.320312 C 197.96875 119.605469 198.289062 118.894531 198.628906 118.195312 C 198.96875 117.496094 199.328125 116.808594 199.707031 116.128906 C 200.085938 115.449219 200.484375 114.78125 200.902344 114.125 C 201.320312 113.46875 201.753906 112.824219 202.207031 112.191406 C 202.660156 111.558594 203.128906 110.941406 203.617188 110.335938 C 209.589844 102.816406 217.480469 96.933594 225.109375 91.214844 C 232.550781 85.632812 240.015625 81.320312 244.761719 72.992188 Z M 242.996094 143.058594 C 238.328125 144.96875 233.457031 145.886719 228.6875 147.441406 C 229.230469 148.871094 229.820312 150.191406 230.511719 151.550781 C 232.632812 152.570312 234.691406 152.507812 236.882812 151.75 C 239.273438 150.921875 242.304688 149.054688 243.394531 146.695312 C 243.789062 145.847656 243.988281 144.171875 243.589844 143.300781 C 243.554688 143.21875 243.503906 143.148438 243.460938 143.070312 Z M 206.53125 127.191406 C 204.992188 127.683594 203.714844 128.132812 202.957031 129.695312 C 202.507812 130.621094 202.492188 131.6875 202.828125 132.648438 C 203.238281 133.824219 204.070312 134.585938 205.179688 135.105469 C 205.6875 135.34375 206.277344 135.613281 206.847656 135.59375 C 208.402344 134.800781 209.839844 133.949219 210.429688 132.183594 C 210.742188 131.25 210.75 130.191406 210.28125 129.304688 C 209.695312 128.191406 208.378906 127.644531 207.21875 127.328125 C 206.992188 127.265625 206.761719 127.210938 206.53125 127.191406 Z M 206.53125 127.191406 " fill-opacity="1" fill-rule="nonzero"/><path fill="#23c45d" d="M 118.863281 73.507812 C 120.816406 76.40625 122.746094 79.164062 125.328125 81.558594 C 131.890625 87.652344 139.214844 92.496094 146.34375 97.855469 C 148.984375 99.84375 151.503906 102.011719 154.042969 104.125 C 155.28125 105.144531 156.441406 106.242188 157.527344 107.425781 C 159.195312 109.261719 161.246094 112.746094 163.554688 113.675781 C 163.621094 113.742188 163.6875 113.808594 163.753906 113.882812 C 170.839844 121.886719 168.953125 137.714844 168.484375 147.671875 C 168.269531 153.546875 168.003906 159.417969 167.6875 165.289062 C 162.742188 162.117188 159.742188 156.929688 155.945312 152.609375 C 151.792969 147.890625 147.4375 143.34375 143.464844 138.464844 C 142.375 137.125 141.316406 135.761719 140.285156 134.375 C 139.253906 132.988281 138.253906 131.578125 137.285156 130.148438 C 136.316406 128.71875 135.382812 127.265625 134.476562 125.796875 C 133.574219 124.324219 132.703125 122.832031 131.863281 121.320312 C 131.023438 119.8125 130.21875 118.285156 129.449219 116.738281 C 128.675781 115.191406 127.941406 113.628906 127.238281 112.050781 C 126.535156 110.472656 125.867188 108.878906 125.238281 107.273438 C 124.605469 105.664062 124.007812 104.042969 123.449219 102.410156 C 122.230469 98.824219 121.285156 95.152344 120.304688 91.496094 C 119.734375 96.589844 120.277344 102.453125 121.207031 107.46875 C 126.011719 133.394531 143.714844 149.941406 158.953125 169.871094 C 160.980469 172.519531 163.800781 174.757812 165.570312 177.542969 C 166.175781 178.5 166.488281 179.421875 166.636719 180.542969 C 166.964844 183.082031 166.128906 194.140625 165.578125 196.738281 C 163.007812 196.023438 160.464844 195.207031 157.957031 194.296875 C 155.445312 193.382812 152.976562 192.375 150.542969 191.273438 C 131.339844 182.394531 114.742188 166.785156 107.359375 146.683594 C 103.355469 135.789062 102.5625 124.285156 103.597656 112.800781 C 103.855469 109.917969 104.125 106.972656 104.726562 104.136719 C 105.203125 101.894531 105.984375 99.664062 106.65625 97.46875 C 107.359375 95.167969 108.015625 92.757812 109.023438 90.570312 C 110.308594 89.222656 112.152344 84.863281 113.148438 83.039062 C 114.910156 79.804688 116.800781 76.558594 118.863281 73.507812 Z M 119.898438 142.257812 C 119.375 143.953125 118.777344 145.460938 119.632812 147.164062 C 120.804688 149.488281 123.847656 150.921875 126.242188 151.632812 C 128.5 152.300781 131.726562 152.625 133.835938 151.40625 C 133.917969 151.359375 133.996094 151.308594 134.078125 151.257812 C 134.839844 150.242188 135.324219 149.292969 135.746094 148.089844 C 132.726562 146.363281 129.277344 145.640625 125.996094 144.570312 C 123.929688 143.898438 121.910156 143.074219 119.898438 142.257812 Z M 155.574219 127.574219 C 153.816406 128.675781 153.09375 129.574219 152.519531 131.597656 C 152.84375 132.875 153.238281 133.9375 154.414062 134.660156 C 155.3125 135.214844 156.578125 135.328125 157.585938 135.058594 C 157.6875 135.03125 157.789062 135 157.890625 134.972656 C 159.234375 134.085938 160.675781 133.171875 160.980469 131.449219 C 160.996094 131.347656 161.011719 131.246094 161.019531 131.140625 C 161.027344 131.039062 161.027344 130.9375 161.023438 130.832031 C 161.019531 130.730469 161.011719 130.625 160.996094 130.523438 C 160.984375 130.421875 160.960938 130.320312 160.9375 130.21875 C 160.910156 130.117188 160.878906 130.019531 160.84375 129.921875 C 160.808594 129.824219 160.765625 129.730469 160.71875 129.636719 C 160.671875 129.542969 160.621094 129.453125 160.566406 129.367188 C 160.507812 129.28125 160.449219 129.195312 160.382812 129.117188 C 159.679688 128.234375 158.449219 127.695312 157.339844 127.589844 C 156.761719 127.535156 156.15625 127.542969 155.574219 127.574219 Z M 155.574219 127.574219 " fill-opacity="1" fill-rule="nonzero"/><path fill="#373643" d="M 180.449219 5.78125 C 180.898438 5.785156 181.363281 5.78125 181.789062 5.945312 C 183.085938 6.4375 183.773438 7.667969 184.128906 8.933594 C 185.386719 13.457031 184.722656 18.765625 184.890625 23.445312 C 185.191406 31.929688 185.90625 40.394531 186.203125 48.878906 C 186.453125 55.992188 186.222656 63.265625 186.851562 70.34375 C 186.992188 71.933594 187.1875 73.980469 187.921875 75.417969 C 188.761719 77.070312 190.511719 77.6875 192.175781 78.179688 C 194.113281 77.242188 195.949219 76.042969 196.695312 73.910156 C 198.152344 69.757812 197.21875 62.324219 197.171875 57.746094 L 197.027344 26.949219 C 196.972656 21.460938 196.507812 15.863281 196.789062 10.382812 C 196.84375 9.261719 196.980469 7.902344 197.601562 6.941406 C 197.867188 6.53125 198.246094 6.242188 198.742188 6.179688 C 199.21875 6.121094 199.855469 6.390625 200.222656 6.691406 C 201.140625 7.449219 201.640625 9.414062 201.949219 10.542969 C 202.9375 14.183594 203.382812 18.117188 204.0625 21.835938 C 205.730469 30.632812 207.164062 39.46875 208.363281 48.339844 C 210.429688 63.921875 213.917969 80.386719 203.765625 94.117188 C 200.5625 98.445312 196.382812 101.9375 193.125 106.230469 C 189.214844 111.386719 186.960938 117.273438 186.027344 123.652344 C 184.96875 130.855469 185.496094 138.261719 185.96875 145.492188 L 187.058594 161.898438 C 188.398438 182.15625 188.753906 202.429688 191.117188 222.625 C 191.757812 228.050781 192.632812 233.445312 193.734375 238.796875 C 194.539062 242.824219 195.511719 246.851562 196.074219 250.917969 C 196.859375 256.574219 196.847656 262.285156 193.222656 267.003906 C 190.628906 270.386719 187.292969 272.09375 183.125 272.664062 C 179.480469 272.738281 176.074219 272.125 172.886719 270.265625 C 165.539062 265.984375 165.390625 258.207031 166.21875 250.59375 C 166.628906 246.839844 167.484375 243.164062 168.203125 239.464844 C 168.945312 235.652344 169.5625 231.816406 170.050781 227.960938 C 171.984375 212.742188 173.230469 197.292969 174.203125 181.988281 C 174.574219 176.089844 174.777344 170.1875 175.160156 164.292969 L 176.523438 143.847656 C 176.835938 139.277344 177.324219 134.632812 177.210938 130.046875 C 177.097656 125.609375 176.515625 121.074219 175.28125 116.808594 C 173.855469 111.875 171.519531 107.449219 167.785156 103.882812 C 165.5625 101.753906 163.179688 99.757812 161.160156 97.425781 C 157.742188 93.472656 155.421875 88.484375 154.113281 83.449219 C 152.882812 78.710938 152.542969 73.84375 152.695312 68.964844 C 152.851562 64.121094 153.484375 59.289062 154.050781 54.476562 C 155.191406 44.75 156.578125 35.058594 158.207031 25.402344 C 158.953125 20.738281 159.261719 15.960938 160.296875 11.355469 C 160.601562 10 161 8.597656 161.738281 7.410156 C 162.191406 6.6875 162.992188 6.308594 163.796875 6.125 C 164.132812 6.175781 164.375 6.210938 164.640625 6.449219 C 165.574219 7.28125 165.839844 8.992188 165.964844 10.179688 C 166.554688 15.835938 165.976562 21.753906 165.90625 27.4375 L 165.832031 54.074219 C 165.816406 58.222656 165.578125 62.382812 165.667969 66.527344 C 165.722656 69.199219 165.832031 74.601562 167.992188 76.539062 C 169.363281 77.765625 171.230469 77.785156 172.960938 77.738281 C 174.308594 76.660156 175.480469 75.621094 176.003906 73.914062 C 177.28125 69.738281 176.441406 64.449219 176.46875 60.101562 C 176.523438 50.84375 176.871094 41.601562 177.027344 32.347656 C 177.117188 27.207031 176.429688 11.742188 177.992188 7.597656 C 178.375 6.578125 179.53125 6.1875 180.449219 5.78125 Z M 180.449219 5.78125 " fill-opacity="1" fill-rule="nonzero"/></svg>